<svg version="1.2" baseProfile="tiny-ps" xmlns="http://www.w3.org/2000/svg" width="24" height="25"><style></style><path id="Layer" d="M18.4 24.9H5.7c-3.1 0-5.7-2.5-5.7-5.7V6.5C0 3.4 2.5.8 5.7.8h12.7c3.1 0 5.7 2.5 5.7 5.7v12.7c0 3.2-2.5 5.7-5.7 5.7z" fill="#009688"/><path id="Layer" fill-rule="evenodd" d="M14.54 5.31H9.46V3.62h5.08v1.69zm5.02 7.61c.16 1.42-.08 2.86-.7 4.15A7.635 7.635 0 0112 21.38c-4.21 0-7.61-3.41-7.61-7.61S7.8 6.16 12 6.16c.43 0 .86.04 1.28.11.42.07.83.18 1.24.32.4.14.79.32 1.17.53.37.2.73.44 1.06.71l1.2-1.2c.43.36.83.76 1.19 1.19l-1.2 1.21c.9 1.11 1.46 2.46 1.62 3.89zm-1.64.85A5.92 5.92 0 0012 7.85a5.92 5.92 0 00-5.92 5.92A5.92 5.92 0 0012 19.69a5.92 5.92 0 005.92-5.92zm-6.77-4.23h1.7v5.07h-1.7V9.54z" fill="#fff"/><path id="Layer" d="M.1.9h24v24H.1V.9zm0 0h24v24H.1V.9z" fill="none"/></svg>